<svg xmlns="http://www.w3.org/2000/svg" xmlns:xlink="http://www.w3.org/1999/xlink" width="16" height="16"><defs><path d="M5.12 12.61l.37-2.32 1.46.84 1.46.85-1.83 1.48-1.82 1.47.36-2.32z" id="a"/><path d="M6.47 13.39l.37-2.32 1.46.85 1.46.84-1.83 1.48-1.82 1.47.36-2.32z" id="b"/><path d="M5.41 13.68l.37-2.32 1.46.84 1.46.84-1.83 1.48L5.04 16l.37-2.32z" id="c"/><path d="M12.35 6.78l-1.91 6.76-2.98-1.72-2.99-1.72 4.9-5.04 4.9-5.04-1.92 6.76z" id="d"/><path d="M6.44 7.43L1.72 9.46l5.32 3.08 5.32 3.07-.59-5.11-.6-5.11-4.73 2.04z" id="e"/><path d="M9.4 12.55l.41 3.41-3.56-2.06-3.55-2.05 3.15-1.35L9 9.15l.4 3.4z" id="f"/></defs><use xlink:href="#a" fill="#fafafa"/><use xlink:href="#b" fill="#fafafa"/><use xlink:href="#c" fill="#fafafa"/><use xlink:href="#d" fill="#fafafa"/><g><use xlink:href="#e" fill="#fafafa"/></g><g><use xlink:href="#f" fill="#fafafa"/></g></svg>